<svg height="154.78" viewBox="0 0 600 154.78" width="600" xmlns="http://www.w3.org/2000/svg"><path d="m247.75 0c2.18 1.28 2.82 3.46 3.07 5.76 1.15 8.32 2.18 16.64 3.33 25 .26 1.92.51 3.71.64 5.63.26 3.2 1.66 4.35 4.86 4 1.54-.26 2.94-.77 4.48-.9 3.2-.26 6.4-.38 9.6-.64a23.4 23.4 0 0 1 4.22-.26 2.94 2.94 0 0 1 2.18 1c.38 1-.38 1.79-1.41 2.43a18.71 18.71 0 0 0 -2.43 2c-.51.51-.9 1.15-1.41 1.66a45.2 45.2 0 0 0 -6.27 8.45c-1.54 3.07-2.69 3.33-6 2.82a19.76 19.76 0 0 0 -3.84-.51c-2.69-.13-4.48 1.41-4.48 4.1-.29 6.26-.29 12.53-.53 18.8-.26 4.22-.51 8.57-1.15 12.8-.9 5.25-.38 10.37-.13 15.61.26 3.46.13 6.91.26 10.37a14.27 14.27 0 0 0 1.15 5.25 49.26 49.26 0 0 0 5 7.68 7.93 7.93 0 0 0 3.2 2.18 2.15 2.15 0 0 1 1 3.2 10.73 10.73 0 0 1 -5.5 5.37 29.89 29.89 0 0 0 -10.24 7 29.93 29.93 0 0 1 -3.84 3.2 1.65 1.65 0 0 1 -1.54.13 9 9 0 0 1 -2.3-1.54l-12.27-12.59a17.19 17.19 0 0 1 -2.82-4 3.53 3.53 0 0 1 .64-4.61c2.82-2.56 3.46-5.89 3.71-9.47.38-4.22 1.54-8.32 2.18-12.54.9-5.63 1.28-11.39 0-17a32.42 32.42 0 0 1 -.26-7c.26-7.42.26-14.84-1-22.14a4.36 4.36 0 0 0 -3.46-3.84 19.26 19.26 0 0 0 -9-.51c-.26 0-.51.13-.77.13-2.69-.51-4.22.77-5.5 3.07-1.54 2.94-3.71 5.5-4 9a1.82 1.82 0 0 1 -.26.77c-1.92 2.82-1.79 6.14-1.92 9.34-.26 7.17-.77 14.2-.64 21.37a95.46 95.46 0 0 0 1.28 13.44 20.13 20.13 0 0 1 .13 6.78 15.49 15.49 0 0 0 -.13 2.43c.26 2.18 1.41 3.07 3.46 2.94 1.79-.13 3.58-.51 5.5-.77a9.45 9.45 0 0 1 2.69 0 1.53 1.53 0 0 1 1.28.64 4.17 4.17 0 0 1 -.51 1.66 5.28 5.28 0 0 1 -1.41.9c-7.81 3.2-13.31 8.7-17.79 15.61-.64 1-1.41 2.18-2.18 3.2-1.15 1.41-2.18 1.54-3.46.38a9 9 0 0 1 -1.66-2.18c-1-1.92-1.79-3.84-2.82-5.76a4.55 4.55 0 0 0 -.51-1.15c-1.54-2.56-2.82-2.94-5.12-1-2.69 2.18-5.12 4.61-7.68 6.91s-5.37 4.86-8.19 7.17c-2.3 1.92-3.84 1.66-6-.26-6.78-6.14-13.82-12-21.75-16.64a3.59 3.59 0 0 1 -1.28-1.79 68.75 68.75 0 0 1 -.64-10.24c.26-5.5.9-11 1.28-16.51a11.05 11.05 0 0 1 3.46-7.81 106.44 106.44 0 0 1 9.47-7.55c3.71-2.82 4-4.48 1-7.93-4.73-5.5-9.34-11.13-14.08-16.64a9.77 9.77 0 0 0 -1.15-1.15c-3.84 4.86-7.55 9.6-11.26 14.33a9.55 9.55 0 0 0 -1.92 5.89c.26 7.81.13 15.61.77 23.29.26 4.1 1.66 8.19 2.43 12.29.51 2.43 1 4.86 1.41 7.42a5 5 0 0 1 -1.66 4.73 37.83 37.83 0 0 1 -3.33 3.07c-3.46 2.94-4.86 7.17-6 11.26-.38 1.41-.9 3.2-2.18 3.33s-2.69-1-3.58-1.92a40.59 40.59 0 0 1 -2.94-4.61 11.05 11.05 0 0 0 -1.28-2 33.3 33.3 0 0 1 -7.68-14.33c-.38-1.41 0-3.07.13-4.61.64-4.73 1.79-9.47 1.92-14.33a144.92 144.92 0 0 0 -.64-19.71c-.64-7.29-1.92-13.95-2.94-20.73a23.82 23.82 0 0 0 -1.28-4c-1-2.18-2.43-2.69-4-.9a29.2 29.2 0 0 0 -5.37 7.17 45.92 45.92 0 0 0 -4 16.51c-.51 9.09-.77 18-1.41 27.13a66.17 66.17 0 0 0 1.28 17.4 4.16 4.16 0 0 0 2.56 3.2c2.43 1.28 2.69 2.3.51 4.1a16.06 16.06 0 0 1 -5.03 2.94c-4.1 1.54-7.81 3.33-10.75 6.78-1.66 1.92-2.82 1.79-4.86 0-.51-.38-1-.9-1.54-1.28-3.33-2-5.63-5.12-8.32-7.93-2.18-2.3-2.3-3.33-.51-5.89a20.75 20.75 0 0 0 3.71-13.05c-.13-5.89-.64-11.77-.9-17.66-.13-3.84-.38-7.68-.13-11.52.42-5.88-.22-11.77-.7-17.62-.26-2.69-.38-5.37-.77-8.06-.64-4.73-3.46-5.76-7.17-2.82-1.41 1.15-2.82 2.3-4.22 3.58a2.3 2.3 0 0 0 -.38 1.41c.13 4.61.51 9.21.51 13.82 0 2.94-.26 5.76-.51 8.7-.16 2.66-.46 5.37-.46 8.03-.13 2.94 0 5.89-.13 8.7a11.86 11.86 0 0 1 -2.87 7.17 11.08 11.08 0 0 0 -2.56 7c-.38 7.68-.64 15.36-1 23a18.44 18.44 0 0 1 -2.44 8.14c-1.54 2.69-2.82 2.82-4.86.38l-2.35-3.05c-2.56-3.33-5.12-6.65-8.7-9-4.61-3.07-5.5-7.55-4.35-12.54.77-3.2 1.66-6.27 2.3-9.47 2.43-11.39 2-22.78.51-34.17-.77-6-.9-12.16-1.15-18.17a35.9 35.9 0 0 1 0-3.71c0-3.84-1.15-5.12-5.76-4.61-3.71.38-7.42.64-11.26 1-.12-.08-.25-.33-.38-.46a15.89 15.89 0 0 1 2.43-3.33c4.86-4.1 9.85-8.19 14.84-12.16a29 29 0 0 0 5.73-6.78 2.33 2.33 0 0 1 2.43-1 7.84 7.84 0 0 1 5.12 2.94c1.83 2.15 3.45 4.33 5.45 6.46a18.22 18.22 0 0 0 3.71 3.33c3.33 2 5.5 4.73 5.37 8.83a6 6 0 0 0 .26.64c1.54-1.28 2.94-2.43 4.35-3.71a24.54 24.54 0 0 1 7-4.22 18.22 18.22 0 0 0 4.86-3.33c3.59-3.29 6.91-6.74 10.45-10.07 1-1 2.56-1.54 3.84-2.3a1.35 1.35 0 0 0 .64.26 17.06 17.06 0 0 1 0 2.56 8.13 8.13 0 0 1 -.77 2.3c-3.2 7.68-2.69 15.36-.64 23.16a13.59 13.59 0 0 0 2.3 4.22c1 1.41 2.18 1.28 3.33-.13a6.78 6.78 0 0 0 .77-1.28c3.84-7.93 10-13.95 16-20.09 2.94-2.94 6.65-5.12 10.11-7.55 1.92-1.41 2.82-.9 3.46 1.41.77 3.33 1.41 6.65 2.43 9.85a24.65 24.65 0 0 0 6.53 10.37 6.06 6.06 0 0 0 7.17 1.28c1.54-.77 3.07-1.41 4.61-2a1.52 1.52 0 0 0 .9-.51c.77-1.79 2-1.28 3.33-.9a54.53 54.53 0 0 0 5.99 1.88 15.49 15.49 0 0 0 5.37.38c4.22-.64 8.32-1.54 12.54-2.43a12.86 12.86 0 0 0 8.7-6.27c1.41-2.18 3.07-4.35 4.61-6.53a6.78 6.78 0 0 1 1.92-1c.26.64.9 1.28.77 1.92a5.89 5.89 0 0 0 3.84 6.4c5.76 2.56 11.65 5.25 17.53 7.81a5.11 5.11 0 0 0 5.63-.77c2.43-2 5-4.1 7.55-6a1.63 1.63 0 0 0 .54-.81 73.83 73.83 0 0 0 2.82-7.42 5.22 5.22 0 0 1 5.25-4.1c1.79-.13 3.71-.38 5.5-.64 5-.64 6.78-2.56 7.17-7.55.38-4.61.64-9.34 1.28-13.95a21.25 21.25 0 0 1 2.18-6 3.08 3.08 0 0 1 1.8-1.55c2.3-.77 3.71-2.43 5.12-4.22 1.41-2 2.94-4 4.48-6a1.9 1.9 0 0 1 1.15-.27zm-87.75 107.75c.13 2.69.26 5.37.51 8.06s.77 5.37.9 8.06a8.92 8.92 0 0 0 3.71 6.78c3.84 3.33 7.93 4.22 12.54 1.54.13-.13.38-.13.51-.26 6.65-2.94 8.19-5.63 7.29-12.8 0-.26-.13-.51-.13-.77 0-3.58-.13-7.17-.13-10.75 0-1.28.26-2.69.26-4-.13-1.92-.77-3.71-2.82-4.61-3.2-1.54-6.4-3.2-9.73-4.61a31.85 31.85 0 0 0 -6.78-2c-2.56-.38-3.84.9-4.61 3.33-1.43 3.97-1.52 7.94-1.52 12.03zm24.19-29.31h.38c0-2.18-1-4-3.2-5.89-4.86-4.22-10.62-7.29-16.25-10.49a6.12 6.12 0 0 0 -6.27 0c-.9.51-1.66.9-2.56 1.41a5.4 5.4 0 0 0 -1.15 8.45c2.82 3.2 5.5 6.4 8.57 9.47a47.35 47.35 0 0 0 16 10.88c3.2 1.28 4.86.13 4.86-3.33s-.29-6.94-.42-10.49zm151.52-9.6c-.13-1.79-.26-3.58-.51-5.25a.66.66 0 0 0 -.26-.51c-1.54-.51-1.66-2.56-3.46-2.94-1-.26-.9-2.18.13-2.69 2.69-1.41 5.37-2 8.32-.26 2.18 1.41 2.69 1.15 4.61-.38l15.36-11.9c2.69-2 4.22-1.54 5.63 1.41.38.77.77 1.41 1.15 2.18a6.75 6.75 0 0 0 3.32 3.2 39.26 39.26 0 0 0 13.69 3.46c1.79.13 3.58-.51 5.37-.77 1-.13 2-.51 3.07-.64s1.54.64 1.41 1.66a6.52 6.52 0 0 1 -.9 2.18c-.9 1.28-1.92 2.43-2.82 3.71a16.29 16.29 0 0 0 -3.46 11.77c.13 1.41.38 2.94-1.28 3.58a6 6 0 0 1 -5.5-.26 31.86 31.86 0 0 0 -15.61-5.12 2.68 2.68 0 0 0 -2.82 2.3 26.48 26.48 0 0 0 -.51 6.4c.13 2.82.64 5.76 1 8.57a17.33 17.33 0 0 1 -.9 6.27c-.9 4.35-1.41 8.7-2 13.18-.38 2.69-.64 5.5-.77 8.19-.38 5.12-.13 10.24 1.92 15.1a11.85 11.85 0 0 0 3.2 4c2.3 2.18 4.73 4.1 7 6.14a.26.26 0 0 1 -.13.26c-4.1 3.33-8.06 6.65-12.16 9.85a5 5 0 0 1 -6.14.26c-2.3-1.41-4.48-2.94-6.65-4.35-2.56-1.66-5.25-3.46-7.81-5-2-1.28-2.43-2.3-1.41-4.61v-.13c2.82-3.46 2.82-7.68 2.69-11.77 0-6.14.26-12.16.13-18.3 0-4.1-.51-8.32-.64-12.41 0-1.41 0-2.94.13-4.35.9-5.51-.1-10.87-1.28-15.87-6.27 2.43-10.75 7.17-15.74 11.52a80.5 80.5 0 0 1 -8.57 6.14c-4.61 3.07-9.21 5.89-13.82 9a3.84 3.84 0 0 0 -1.54 2.43 23.4 23.4 0 0 0 .51 11.52 23.53 23.53 0 0 1 .9 11.9c-.77 5.25 1.28 7.29 6.53 6.65 2.94-.26 5.25-1.79 7.68-3.33 3.07-1.79 6-4 9.09-6a6 6 0 0 1 2.18-.51 4.43 4.43 0 0 1 -.26 2.3 22 22 0 0 1 -3.58 4.73c-3.46 3.07-6.91 6.14-10.75 9-4.61 3.33-9.34 6.27-14.08 9.47a16.66 16.66 0 0 0 -2.3 1.92c-1.92 1.54-3.84 1.28-5-.77-3.58-6.53-9.34-10.37-15.87-13.31-1.15-.51-2.43-1.15-3.58-1.79-1.54-.9-1.92-2-.9-3.58a16.13 16.13 0 0 1 2.56-2.56 13.52 13.52 0 0 0 4.22-5.76c2.43-6.4 3.2-12.8 1-19.45a7.31 7.31 0 0 1 -.13-3.71 25.13 25.13 0 0 0 -.37-10.34 81.82 81.82 0 0 1 -2-20.09 52.44 52.44 0 0 0 -.26-6.4 3.6 3.6 0 0 1 1.54-3.46c1.79-1.15 3.84-2.18 5.63-3.33a12.9 12.9 0 0 0 2.39-2.19 13.7 13.7 0 0 1 2-1.79c2.82-1.79 5.63-3.46 8.32-5.12 1.54-1 3.07-2 4.48-3.2s2.69-1.41 4-.64a48.65 48.65 0 0 1 6.78 4.61c4.48 3.71 8.83 7.81 13.31 11.65a48.7 48.7 0 0 0 13.31 8.06 4.75 4.75 0 0 1 1.17.28zm-43.81-1.27c-.13 2.94-.13 5.76 1.28 8.57a6.35 6.35 0 0 1 .38 1.66c.26 2.94.51 5.89.9 8.83a3.11 3.11 0 0 0 2.3 2.94 3.2 3.2 0 0 0 3.24-1.57 19.53 19.53 0 0 1 6.78-5.63c2.3-1.15 4.22-3.2 6.14-5 1.54-1.54 1-2.69-.64-4-1-.77-1.92-1.79-2.94-2.69-3.33-2.94-6.53-5.89-9.85-8.7a8.14 8.14 0 0 0 -3.71-1.66c-1.79-.51-3.2.64-3.46 2.56zm130.66-23.29v12.67a6.42 6.42 0 0 0 .26 1.54c.9 3.84 3.2 4.73 6.27 2.18 5-4.1 9.85-8.19 14.59-12.41a99.9 99.9 0 0 0 7.17-7.55c1.66-1.79 2.56-2.3 4.61-.9a18.23 18.23 0 0 1 4.73 4.1 35.24 35.24 0 0 0 9.34 8.57 8 8 0 0 1 3.71 7.81 112.52 112.52 0 0 0 .64 17.4c.38 4.48.9 9 1 13.44.13 2.82-.38 5.63-.51 8.45-.13 4-.26 7.93-.26 11.77a12.39 12.39 0 0 1 -2.18 7.55c-1.54 2-1.66 4.48-1.54 6.91.38 5.25-1.15 10.11-3.33 14.84-2.82 6-7.81 9.34-14.08 11.13-3.33.9-6.65 1.54-10 .64a21.21 21.21 0 0 1 -5.5-2.43 2.87 2.87 0 0 1 -.9-2.18 2.1 2.1 0 0 1 1.28-1.28 8.94 8.94 0 0 0 6-5.89 38.12 38.12 0 0 0 1.41-5.12c1.15-5.12 2.18-10.24 3.2-15.48a44.4 44.4 0 0 0 .77-5.76 112.71 112.71 0 0 0 -1-21.75 266.19 266.19 0 0 1 -2.56-28.41c-.13-3.84-2-5.25-5.63-3.84a19 19 0 0 0 -5.89 3.33 37.84 37.84 0 0 0 -10.16 14.2 13.57 13.57 0 0 0 -.64 6.78 72 72 0 0 1 -.13 17.4 19.09 19.09 0 0 0 -.26 2.69c0 5.89-1.15 11.65.26 17.53a30.18 30.18 0 0 0 5.37 11.39 4.29 4.29 0 0 1 .51 4.73 15 15 0 0 1 -4.86 6.4l-3.84 3.07a2.92 2.92 0 0 1 -3.71.38 5 5 0 0 1 -1.28-1 17.91 17.91 0 0 0 -8.45-4.73 11.4 11.4 0 0 1 -6.65-3.84 3.63 3.63 0 0 1 -.64-3.58c.38-1.66.77-3.58.26-5.12-1.79-4.86-1.79-10-2.18-15-.38-5.5-.77-11.13-1-16.76a139.51 139.51 0 0 1 1.24-21.88 59.62 59.62 0 0 0 .26-8.32c0-3.07-.26-6.27-.26-9.34s1.54-5.5 3.84-7.55c3.58-3.2 7.93-4.86 12.54-5.89 2.8-.25 5.23-.38 8.18-.89zm142.3 82.67c0 1.66-.51 2.56-1.79 2.94-9 2.56-15.36 8.7-20.86 15.87-1 1.28-2 2.43-3.07 3.71-.77.9-1.54 1-2.3.13a21.4 21.4 0 0 1 -3.07-4.48c-1.15-2.18-1.79-4.48-2.82-6.65s-2.82-2.82-4.86-1.28c-2.82 2-5.5 4.35-8.19 6.4-3.07 2.43-6.14 4.86-9.21 7.17a17.92 17.92 0 0 1 -2 1.28c-1.79.9-2.94.51-4.35-.9-7-7-13.95-14.2-22.52-19.58-1.28-.77-1.28-1.92-1.28-3.07.13-4.35.13-8.83.38-13.18.26-3.07 1-6 1.54-9.09a23.56 23.56 0 0 0 .38-4.22 10 10 0 0 1 2.56-7 49.74 49.74 0 0 1 6.78-5.89c2-1.54 4.48-2.69 6.65-4.22 2.56-1.79 2.94-3.84 1.28-6.65a13.58 13.58 0 0 0 -2-2.69c-2.94-2.69-4.73-6.14-6.91-9.34-3.04-4.27-6.2-8.21-9.2-12.33-.64-.77-1.15-1.66-1.79-2.56s-1-1.41-.26-2.3a2.24 2.24 0 0 1 2.69-.77 37.73 37.73 0 0 1 5.25 2.18 15.2 15.2 0 0 0 9.47 1.41c3.84-.64 7.55-1 11.39-1.54a14.34 14.34 0 0 0 9.73-5.76c1.79-2.43 3.71-4.61 5.5-6.91a3.45 3.45 0 0 1 1-.9c1.15-.64 1.92-.13 1.92 1.15v.77c-1 3.71.9 5.89 3.84 7.42 4.48 2.43 9 4.73 13.44 7 1.28.64 2.69 1.28 4 2a4.42 4.42 0 0 0 5.37.13c2-1.28 4-2.82 5.89-4.1a23.35 23.35 0 0 1 4.56-2.47c1.92-.77 2.94.26 2.43 2.18a11.2 11.2 0 0 1 -1.54 3.33c-1 1.66-2.3 3.33-3.46 4.86-1.41 1.92-2.69 3.84-2.94 6.27a3.22 3.22 0 0 1 -.77 1.79 18.27 18.27 0 0 0 -2.69 8.57c-.51 5.89-1.66 11.9-2 17.79-.51 7.68-1 15.36.51 22.91a14.11 14.11 0 0 1 -.26 4 21.7 21.7 0 0 0 -.51 2.82 3.5 3.5 0 0 0 3.84 3.84c1.79 0 3.71-.38 5.5-.38 1.55.08 3.09.34 4.75.34zm-61.17-13.82v10.49a4.79 4.79 0 0 0 .64 2.3 29.17 29.17 0 0 0 4.73 5 8.75 8.75 0 0 0 8.06 1.79c1.79-.51 3.46-1.28 5.25-1.79 5.37-1.41 7.17-5.12 7.17-10.49a85.78 85.78 0 0 1 1-17.15c.51-2.94 0-5.63-3.71-7.17a76.19 76.19 0 0 1 -7-4c-2.69-1.28-5.37-2.56-8.06-3.58a3.69 3.69 0 0 0 -4.86 1.79 27.76 27.76 0 0 0 -1.91 4.51c-1.69 6.17-1.44 12.28-1.31 18.3zm4.86-58a15.6 15.6 0 0 0 -7.55 3.2 3.79 3.79 0 0 0 -1.54 3.33 12.51 12.51 0 0 0 3.08 7.34 95.85 95.85 0 0 0 13.95 14.84 30.12 30.12 0 0 0 11 6.14c1.28.38 1.92-.13 2.56-1.15 1.28-2.43 1.15-5 .77-7.68a8.45 8.45 0 0 1 0-3.58c1.54-3.58.38-6.14-2-8.7-4.86-5.25-11-9-17-12.67a15.47 15.47 0 0 0 -3.27-1.04zm86.38 49.4c-.13 6.91-.51 13.95-.38 20.86 0 3.58.9 7.17 1.54 10.75a4.43 4.43 0 0 0 1.92 2.18c2.43 1.54 2.69 2.3.51 4.22a18.53 18.53 0 0 1 -4.86 2.82c-3.71 1.41-7 3.07-9.73 6.14-1.66 1.79-2.69 1.66-4.73.13a40.64 40.64 0 0 1 -7.42-6.65c-.77-.9-1.66-1.79-2.43-2.69a3.3 3.3 0 0 1 -.26-4.35c4.86-7 5.89-14.72 5-23.16a281.16 281.16 0 0 1 -1.3-49.78 131.16 131.16 0 0 0 -2-33.91c-.9-4.35.64-7.93 2.43-11.52 1.28-2.56 3.33-4.73 4.86-7.17 1.28-1.92 2.3-3.84 3.46-5.76a6.42 6.42 0 0 1 1.79-1.92c2-1.54 3.71-.77 4.48 1.66.38 1.66 1 3.33 1.54 5a15.5 15.5 0 0 0 5.89 8.06c3.33 2.43 4.35 5.5 3.33 9.47a104.92 104.92 0 0 0 -2.94 12.16c-.64 4.48-.51 9.09-.77 13.69-.13 2.56-.26 5-.26 7.55 0 5.5-.13 11 0 16.38.13 8.57.51 17.15.77 25.72a.63.63 0 0 1 -.44.14z" fill="#fff"/></svg>